<svg width="6812" height="1554" viewBox="0 0 6812 1554" fill="none" xmlns="http://www.w3.org/2000/svg">
<path d="M2153 1340.5C2130 1340.5 2118.5 1335 2118.5 1324C2118.5 1316 2122 1311 2129 1309C2137 1306 2145 1303 2153 1300C2168 1295 2182.5 1288.5 2196.5 1280.5C2210.5 1272.5 2217.5 1258.5 2217.5 1238.5V487C2217.5 452 2212.5 426.5 2202.5 410.5C2192.5 394.5 2175 383.5 2150 377.5C2141 375.5 2136.5 369 2136.5 358C2136.5 348 2140.5 342 2148.5 340C2174.5 334 2197 328 2216 322C2235 315 2252 308.5 2267 302.5C2283 295.5 2298.5 289 2313.5 283C2319.5 280 2324 278.5 2327 278.5C2330 278.5 2332 279.5 2333 281.5C2335 283.5 2336 287 2336 292C2336 302 2333.5 322 2328.5 352C2324.5 382 2322.5 429 2322.5 493V985C2322.5 994 2325 998.5 2330 998.5C2336 998.5 2343.5 996 2352.5 991C2362.5 986 2373 978.5 2384 968.5C2425 933.5 2459 902 2486 874C2514 845 2533 825 2543 814C2548 808 2551.5 803.5 2553.5 800.5C2555.5 796.5 2556.5 793.5 2556.5 791.5C2556.5 786.5 2552 782 2543 778C2535 774 2526.5 771 2517.5 769C2505.5 766 2499.5 761 2499.5 754C2499.5 749 2502.5 745 2508.5 742C2514.5 738 2522.5 736 2532.5 736H2606C2622 736 2638.5 734.5 2655.5 731.5C2673.5 728.5 2690 725.5 2705 722.5C2721 719.5 2733.5 718 2742.5 718C2756.5 718 2763.5 723 2763.5 733C2763.5 739 2760 744.5 2753 749.5C2746 753.5 2737 757 2726 760C2707 765 2689 772 2672 781C2656 790 2641 798.5 2627 806.5C2621 810.5 2607 821.5 2585 839.5C2564 856.5 2539.5 876.5 2511.5 899.5C2484.5 922.5 2459 944.5 2435 965.5C2429 971.5 2426 976.5 2426 980.5C2426 981.5 2426.5 983 2427.5 985C2428.5 987 2429.5 989 2430.5 991C2456.5 1023 2484.5 1055.5 2514.5 1088.5C2544.5 1121.5 2572 1150.5 2597 1175.5C2623 1200.5 2641 1218 2651 1228C2668 1244 2687 1258.5 2708 1271.5C2730 1283.5 2748.5 1292 2763.5 1297C2774.5 1301 2784.5 1304.5 2793.5 1307.5C2803.5 1310.5 2808.5 1316 2808.5 1324C2808.5 1335 2798.5 1340.5 2778.5 1340.5C2739.5 1340.5 2695.5 1339.5 2646.5 1337.5C2598.5 1336.5 2549 1336 2498 1336C2480 1336 2471 1331.5 2471 1322.5C2471 1316.5 2473.5 1311.5 2478.5 1307.5C2483.5 1303.5 2489.5 1300.5 2496.5 1298.5C2507.5 1294.5 2517 1290 2525 1285C2533 1280 2537 1273 2537 1264C2537 1261 2536 1258 2534 1255C2532 1251 2529.5 1247 2526.5 1243L2345 1037.5C2339 1030.5 2334 1027 2330 1027C2325 1027 2322.5 1030.5 2322.5 1037.5C2321.5 1051.5 2321 1067 2321 1084C2321 1100 2321 1116.5 2321 1133.5C2321 1150.5 2321 1168 2321 1186C2321 1204 2321.5 1221.5 2322.5 1238.5C2322.5 1258.5 2327.5 1272.5 2337.5 1280.5C2347.5 1288.5 2360 1295 2375 1300C2383 1303 2390.5 1306 2397.5 1309C2405.5 1311 2409.5 1316 2409.5 1324C2409.5 1331 2404.5 1335.5 2394.5 1337.5C2385.5 1339.5 2379 1340.5 2375 1340.5C2356 1340.5 2342 1339.5 2333 1337.5C2324 1336.5 2315.5 1335.5 2307.5 1334.5C2300.5 1333.5 2288 1333 2270 1333C2253 1333 2239.5 1333.5 2229.5 1334.5C2219.5 1335.5 2209 1336.5 2198 1337.5C2188 1339.5 2173 1340.5 2153 1340.5Z" fill="black"/>
<path d="M2859.12 1340.5C2850.12 1340.5 2842.62 1339 2836.62 1336C2831.62 1334 2829.12 1330 2829.12 1324C2829.12 1316 2832.62 1310.5 2839.62 1307.5C2847.62 1304.5 2855.62 1302 2863.62 1300C2884.63 1295 2900.62 1289 2911.62 1282C2922.62 1274 2928.12 1261 2928.12 1243V917.5C2928.12 890.5 2923.12 866.5 2913.12 845.5C2904.12 824.5 2886.62 812 2860.62 808C2855.63 807 2851.63 805 2848.62 802C2846.62 799 2845.62 794.5 2845.62 788.5C2845.62 777.5 2850.12 771.5 2859.12 770.5C2899.13 761.5 2932.12 749.5 2958.12 734.5C2984.12 718.5 3003.63 705.5 3016.62 695.5C3025.63 688.5 3032.63 685 3037.62 685C3043.63 685 3046.62 687.5 3046.62 692.5C3046.62 700.5 3045.13 716.5 3042.12 740.5C3040.12 763.5 3038.13 789.5 3036.12 818.5C3034.13 846.5 3033.12 872 3033.12 895V1243C3033.12 1260 3038.63 1272.5 3049.62 1280.5C3061.63 1288.5 3077.63 1295 3097.62 1300C3105.63 1302 3113.13 1304.5 3120.12 1307.5C3128.13 1310.5 3132.12 1316 3132.12 1324C3132.12 1335 3122.12 1340.5 3102.12 1340.5C3083.12 1340.5 3067.62 1339.5 3055.62 1337.5C3044.62 1336.5 3033.62 1335.5 3022.62 1334.5C3012.62 1333.5 2998.63 1333 2980.62 1333C2963.63 1333 2949.62 1333.5 2938.62 1334.5C2927.62 1335.5 2916.62 1336.5 2905.62 1337.5C2894.62 1339.5 2879.12 1340.5 2859.12 1340.5ZM2979.12 562C2958.13 562 2940.13 555 2925.12 541C2911.12 526 2904.12 508 2904.12 487C2904.12 465 2911.12 447 2925.12 433C2940.13 418 2958.13 410.5 2979.12 410.5C3001.13 410.5 3019.13 418 3033.12 433C3048.13 447 3055.62 465 3055.62 487C3055.62 508 3048.13 526 3033.12 541C3019.13 555 3001.13 562 2979.12 562Z" fill="black"/>
<path d="M3226.8 1340.5C3217.8 1340.5 3210.3 1339 3204.3 1336C3199.3 1334 3196.8 1330 3196.8 1324C3196.8 1316 3199.8 1311 3205.8 1309C3211.8 1306 3220.3 1303 3231.3 1300C3246.3 1296 3260.8 1290.5 3274.8 1283.5C3288.8 1276.5 3295.8 1263 3295.8 1243V920.5C3295.8 893.5 3292.8 870.5 3286.8 851.5C3281.8 832.5 3266.3 819.5 3240.3 812.5C3236.3 810.5 3232.8 808.5 3229.8 806.5C3226.8 803.5 3225.3 799 3225.3 793C3225.3 782 3229.8 776 3238.8 775C3273.8 766 3302.3 755 3324.3 742C3346.3 729 3367.8 714.5 3388.8 698.5C3391.8 696.5 3394.3 695 3396.3 694C3399.3 692 3402.3 691 3405.3 691C3407.3 691 3408.8 692 3409.8 694C3411.8 696 3412.8 698.5 3412.8 701.5C3412.8 708.5 3411.3 723 3408.3 745C3406.3 766 3405.3 783.5 3405.3 797.5C3405.3 801.5 3405.3 805.5 3405.3 809.5C3406.3 812.5 3407.3 814.5 3408.3 815.5C3443.3 782.5 3480.3 757.5 3519.3 740.5C3559.3 723.5 3602.8 715 3649.8 715C3698.8 715 3739.3 735 3771.3 775C3803.3 815 3819.3 864.5 3819.3 923.5V1243C3819.3 1263 3826.3 1276.5 3840.3 1283.5C3854.3 1289.5 3868.8 1295 3883.8 1300C3891.8 1303 3899.3 1306.5 3906.3 1310.5C3914.3 1313.5 3918.3 1319 3918.3 1327C3918.3 1333 3914.8 1336.5 3907.8 1337.5C3900.8 1339.5 3894.3 1340.5 3888.3 1340.5C3868.3 1340.5 3852.8 1339.5 3841.8 1337.5C3830.8 1336.5 3820.3 1335.5 3810.3 1334.5C3800.3 1333.5 3786.3 1333 3768.3 1333C3751.3 1333 3737.3 1333.5 3726.3 1334.5C3715.3 1335.5 3703.8 1336.5 3691.8 1337.5C3680.8 1339.5 3665.3 1340.5 3645.3 1340.5C3640.3 1340.5 3633.8 1339.5 3625.8 1337.5C3618.8 1336.5 3615.3 1333 3615.3 1327C3615.3 1319 3618.8 1313.5 3625.8 1310.5C3633.8 1306.5 3641.8 1303 3649.8 1300C3664.8 1295 3679.3 1289.5 3693.3 1283.5C3707.3 1276.5 3714.3 1263 3714.3 1243V928C3714.3 884 3701.8 850 3676.8 826C3652.8 801 3620.3 788 3579.3 787C3543.3 787 3511.8 793 3484.8 805C3457.8 816 3433.8 830 3412.8 847C3408.8 851 3405.8 856.5 3403.8 863.5C3401.8 869.5 3400.8 875.5 3400.8 881.5V1243C3400.8 1263 3407.8 1276.5 3421.8 1283.5C3435.8 1290.5 3450.3 1296 3465.3 1300C3488.3 1306 3499.8 1314 3499.8 1324C3499.8 1330 3497.3 1334 3492.3 1336C3487.3 1339 3479.8 1340.5 3469.8 1340.5C3449.8 1340.5 3433.8 1339.5 3421.8 1337.5C3410.8 1336.5 3400.3 1335.5 3390.3 1334.5C3380.3 1333.5 3366.3 1333 3348.3 1333C3331.3 1333 3317.3 1333.5 3306.3 1334.5C3296.3 1335.5 3285.3 1336.5 3273.3 1337.5C3262.3 1339.5 3246.8 1340.5 3226.8 1340.5Z" fill="black"/>
<path d="M4488.78 1364.5C4486.78 1364.5 4483.28 1362.5 4478.28 1358.5C4474.28 1354.5 4472.28 1351.5 4472.28 1349.5C4472.28 1339.5 4473.28 1325.5 4475.28 1307.5C4478.28 1288.5 4479.78 1272.5 4479.78 1259.5V1250.5C4464.78 1273.5 4440.78 1297 4407.78 1321C4374.78 1345 4333.28 1357 4283.28 1357C4226.28 1357 4176.78 1342 4134.78 1312C4093.78 1282 4061.78 1243.5 4038.78 1196.5C4016.78 1149.5 4005.78 1101 4005.78 1051C4005.78 993 4019.28 938.5 4046.28 887.5C4073.28 836.5 4111.78 795 4161.78 763C4212.78 731 4273.28 715 4343.28 715C4363.28 715 4383.28 717 4403.28 721C4424.28 724 4440.28 727.5 4451.28 731.5C4460.28 734.5 4466.78 736 4470.78 736C4477.78 736 4481.28 724 4481.28 700V487C4481.28 446 4474.78 418.5 4461.78 404.5C4448.78 390.5 4430.28 381.5 4406.28 377.5C4397.28 375.5 4392.78 369 4392.78 358C4392.78 349 4396.78 343 4404.78 340C4448.78 329 4483.28 318.5 4508.28 308.5C4533.28 298.5 4552.78 290.5 4566.78 284.5C4570.78 282.5 4574.28 281.5 4577.28 281.5C4581.28 280.5 4584.28 280 4586.28 280C4592.28 280 4595.78 283 4596.78 289C4596.78 295 4595.78 305.5 4593.78 320.5C4592.78 334.5 4591.28 355.5 4589.28 383.5C4587.28 411.5 4586.28 448 4586.28 493V1171C4586.28 1205 4588.78 1230 4593.78 1246C4598.78 1261 4606.78 1268.5 4617.78 1268.5C4622.78 1268.5 4631.28 1268 4643.28 1267C4656.28 1266 4669.28 1265 4682.28 1264C4700.28 1263 4709.28 1267.5 4709.28 1277.5C4709.28 1284.5 4706.78 1291 4701.78 1297C4697.78 1302 4693.28 1304.5 4688.28 1304.5C4660.28 1308.5 4632.78 1314.5 4605.78 1322.5C4578.78 1329.5 4547.78 1340.5 4512.78 1355.5C4504.78 1359.5 4499.28 1362 4496.28 1363C4494.28 1364 4491.78 1364.5 4488.78 1364.5ZM4337.28 1279C4363.28 1279 4388.78 1272.5 4413.78 1259.5C4438.78 1245.5 4460.78 1227.5 4479.78 1205.5L4481.28 935.5C4481.28 908.5 4473.28 882 4457.28 856C4442.28 830 4420.78 809 4392.78 793C4365.78 776 4333.78 767.5 4296.78 767.5C4273.78 767.5 4247.78 774.5 4218.78 788.5C4189.78 802.5 4164.78 827.5 4143.78 863.5C4122.78 898.5 4112.28 949.5 4112.28 1016.5C4112.28 1073.5 4120.78 1119.5 4137.78 1154.5C4154.78 1188.5 4175.28 1214.5 4199.28 1232.5C4224.28 1250.5 4249.28 1263 4274.28 1270C4300.28 1276 4321.28 1279 4337.28 1279Z" fill="black"/>
<path d="M5100.57 1357C5078.57 1357 5056.57 1355 5034.57 1351C5012.57 1347 4991.57 1342.5 4971.57 1337.5C4949.57 1331.5 4930.07 1326 4913.07 1321C4897.07 1316 4886.57 1313.5 4881.57 1313.5C4875.57 1313.5 4869.57 1315.5 4863.57 1319.5C4858.57 1323.5 4853.57 1328 4848.57 1333C4843.57 1338 4839.07 1340.5 4835.07 1340.5C4831.07 1340.5 4826.57 1339 4821.57 1336C4816.57 1332 4814.07 1327.5 4814.07 1322.5C4814.07 1313.5 4815.57 1298 4818.57 1276C4822.57 1254 4824.57 1233.5 4824.57 1214.5V487C4824.57 461 4818.07 438.5 4805.07 419.5C4792.07 400.5 4775.57 386.5 4755.57 377.5C4751.57 375.5 4747.07 373 4742.07 370C4738.07 366 4736.07 361 4736.07 355C4736.07 350 4738.07 346.5 4742.07 344.5C4746.07 342.5 4750.07 341 4754.07 340C4767.07 337 4784.57 331.5 4806.57 323.5C4829.57 315.5 4851.07 307.5 4871.07 299.5C4891.07 291.5 4904.57 286 4911.57 283C4917.57 280 4922.07 278.5 4925.07 278.5C4927.07 278.5 4929.07 279.5 4931.07 281.5C4933.07 283.5 4934.07 286 4934.07 289C4934.07 293 4933.07 310 4931.07 340C4930.07 369 4929.57 404.5 4929.57 446.5V754C4929.57 773 4930.57 786 4932.57 793C4934.57 799 4938.07 802.5 4943.07 803.5C4974.07 777.5 5010.07 756.5 5051.07 740.5C5092.07 723.5 5129.07 715 5162.07 715C5213.07 715 5258.57 728 5298.57 754C5339.57 780 5372.07 815.5 5396.07 860.5C5420.07 904.5 5432.07 954.5 5432.07 1010.5C5432.07 1078.5 5418.07 1139 5390.07 1192C5362.07 1244 5323.07 1284.5 5273.07 1313.5C5224.07 1342.5 5166.57 1357 5100.57 1357ZM5135.07 1310.5C5173.07 1310.5 5205.57 1299 5232.57 1276C5260.57 1252 5282.07 1220 5297.07 1180C5312.07 1139 5319.57 1093.5 5319.57 1043.5C5319.57 1004.5 5312.07 964.5 5297.07 923.5C5283.07 882.5 5260.57 848 5229.57 820C5199.57 792 5160.57 778 5112.57 778C5072.57 778 5037.57 784.5 5007.57 797.5C4977.57 810.5 4951.57 827 4929.57 847V1138C4929.57 1173 4939.07 1203.5 4958.07 1229.5C4978.07 1255.5 5003.57 1275.5 5034.57 1289.5C5066.57 1303.5 5100.07 1310.5 5135.07 1310.5Z" fill="black"/>
<path d="M5835.04 1357C5779.04 1357 5728.54 1344 5683.54 1318C5638.54 1292 5602.54 1256.5 5575.54 1211.5C5549.54 1165.5 5536.54 1113.5 5536.54 1055.5C5536.54 1013.5 5544.54 972.5 5560.54 932.5C5577.54 892.5 5601.04 856 5631.04 823C5661.04 790 5696.04 764 5736.04 745C5776.04 725 5819.04 715 5865.04 715C5923.04 715 5975.04 729 6021.04 757C6068.04 785 6105.04 822 6132.04 868C6160.04 913 6174.04 962.5 6174.04 1016.5C6174.04 1074.5 6161.04 1129.5 6135.04 1181.5C6110.04 1233.5 6072.54 1276 6022.54 1309C5972.54 1341 5910.04 1357 5835.04 1357ZM5866.54 1312C5900.54 1312 5931.04 1305.5 5958.04 1292.5C5985.04 1279.5 6006.04 1258.5 6021.04 1229.5C6033.04 1206.5 6041.04 1178.5 6045.04 1145.5C6049.04 1112.5 6051.04 1081.5 6051.04 1052.5C6051.04 1004.5 6042.04 958.5 6024.04 914.5C6007.04 869.5 5982.54 833 5950.54 805C5919.54 776 5882.54 761.5 5839.54 761.5C5812.54 761.5 5788.04 766 5766.04 775C5745.04 783 5725.54 798.5 5707.54 821.5C5687.54 846.5 5674.54 877 5668.54 913C5662.54 949 5659.54 985 5659.54 1021C5659.54 1070 5668.54 1117 5686.54 1162C5704.54 1206 5729.04 1242 5760.04 1270C5791.04 1298 5826.54 1312 5866.54 1312Z" fill="black"/>
<path d="M6218.98 1342C6212.98 1342 6206.48 1341 6199.48 1339C6192.48 1338 6188.98 1334.5 6188.98 1328.5C6188.98 1320.5 6192.48 1314.5 6199.48 1310.5C6207.48 1306.5 6215.48 1303.5 6223.48 1301.5C6238.48 1296.5 6253.48 1288.5 6268.48 1277.5C6284.48 1265.5 6302.98 1245 6323.98 1216L6439.48 1055.5C6446.48 1047.5 6449.48 1041.5 6448.48 1037.5C6448.48 1032.5 6446.48 1027 6442.48 1021L6319.48 833.5C6307.48 813.5 6296.48 799 6286.48 790C6277.48 781 6265.48 774.5 6250.48 770.5C6242.48 768.5 6234.48 765.5 6226.48 761.5C6219.48 757.5 6215.98 751.5 6215.98 743.5C6215.98 735.5 6220.48 731.5 6229.48 731.5C6239.48 730.5 6246.48 730 6250.48 730C6270.48 730 6283.98 730.5 6290.98 731.5C6298.98 732.5 6307.98 733.5 6317.98 734.5C6327.98 735.5 6344.98 736 6368.98 736C6386.98 736 6399.98 735.5 6407.98 734.5C6415.98 733.5 6428.48 733 6445.48 733C6449.48 733 6455.98 733.5 6464.98 734.5C6474.98 734.5 6479.98 738.5 6479.98 746.5C6479.98 752.5 6476.98 757 6470.98 760C6465.98 763 6459.98 765.5 6452.98 767.5C6445.98 769.5 6438.98 772.5 6431.98 776.5C6424.98 779.5 6421.48 785 6421.48 793C6421.48 798 6422.98 805 6425.98 814C6429.98 822 6434.98 831 6440.98 841L6509.98 944.5C6513.98 951.5 6518.48 951.5 6523.48 944.5L6599.98 829C6603.98 824 6606.98 818.5 6608.98 812.5C6610.98 806.5 6611.98 801 6611.98 796C6611.98 784 6605.48 776 6592.48 772C6584.48 769 6576.48 765.5 6568.48 761.5C6561.48 757.5 6557.98 752 6557.98 745C6557.98 737 6562.48 733 6571.48 733C6581.48 732 6588.48 731.5 6592.48 731.5C6600.48 731.5 6611.98 732.5 6626.98 734.5C6641.98 735.5 6655.48 736 6667.48 736C6695.48 736 6714.98 735 6725.98 733C6736.98 730 6748.98 728.5 6761.98 728.5C6767.98 728.5 6774.48 729.5 6781.48 731.5C6788.48 732.5 6791.98 736 6791.98 742C6791.98 749 6787.98 754.5 6779.98 758.5C6772.98 762.5 6765.48 766 6757.48 769C6742.48 773 6724.48 781 6703.48 793C6682.48 804 6664.98 819.5 6650.98 839.5L6556.48 982C6555.48 984 6554.48 987 6553.48 991C6553.48 994 6554.98 997.5 6557.98 1001.5L6703.48 1238.5C6715.48 1257.5 6726.98 1271.5 6737.98 1280.5C6748.98 1289.5 6761.98 1296.5 6776.98 1301.5C6784.98 1303.5 6792.48 1306.5 6799.48 1310.5C6807.48 1314.5 6811.48 1320.5 6811.48 1328.5C6811.48 1334.5 6807.98 1338 6800.98 1339C6793.98 1341 6787.48 1342 6781.48 1342C6761.48 1342 6746.98 1341.5 6737.98 1340.5C6728.98 1339.5 6718.98 1338.5 6707.98 1337.5C6697.98 1336.5 6680.48 1336 6655.48 1336C6637.48 1336 6618.98 1336.5 6599.98 1337.5C6580.98 1338.5 6562.98 1339 6545.98 1339C6522.98 1339 6511.48 1334 6511.48 1324C6511.48 1315 6514.48 1308.5 6520.48 1304.5C6527.48 1300.5 6536.98 1297 6548.98 1294C6559.98 1291 6569.48 1287 6577.48 1282C6586.48 1276 6590.98 1268 6590.98 1258C6590.98 1254 6589.98 1250 6587.98 1246C6586.98 1241 6584.98 1236 6581.98 1231L6493.48 1087C6490.48 1084 6487.48 1084 6484.48 1087L6385.48 1235.5C6384.48 1237.5 6382.98 1241.5 6380.98 1247.5C6378.98 1252.5 6377.98 1258 6377.98 1264C6377.98 1271 6379.48 1278 6382.48 1285C6386.48 1291 6391.98 1295 6398.98 1297C6406.98 1300 6414.48 1303.5 6421.48 1307.5C6429.48 1310.5 6433.48 1316 6433.48 1324C6433.48 1331 6428.48 1335 6418.48 1336C6409.48 1337 6402.98 1337.5 6398.98 1337.5C6390.98 1337.5 6378.48 1337 6361.48 1336C6345.48 1335 6331.48 1334.5 6319.48 1334.5C6291.48 1334.5 6270.98 1335.5 6257.98 1337.5C6245.98 1340.5 6232.98 1342 6218.98 1342Z" fill="black"/>
<path d="M734.542 0.776188C715.571 1.79609 699.455 3.01996 698.843 3.83588C697.212 5.46784 694.968 132.344 694.56 244.534L694.152 322.047L683.34 291.45C677.22 274.519 667.225 246.982 661.105 230.255C654.781 213.325 636.218 162.534 619.899 117.046C603.579 71.5578 588.688 32.3934 587.056 29.9455C585.016 26.6818 582.16 25.254 577.876 25.254C566.657 25.254 473.841 58.299 449.566 70.9459C441.202 75.2294 440.386 76.2493 440.794 82.5728C440.998 86.4484 458.745 137.444 479.961 195.986C524.635 318.783 541.77 367.739 540.75 370.595C540.138 372.43 469.965 290.226 379.597 181.708C358.382 156.21 339.818 135.404 338.594 135.404C328.395 135.404 221.095 226.38 221.095 234.947C221.095 239.027 232.927 254.937 254.754 280.231C264.953 292.062 282.293 312.664 293.512 326.127C304.732 339.589 335.534 376.306 361.849 407.719C416.111 472.177 419.375 476.257 418.151 477.685C417.131 478.501 404.28 471.361 285.353 402.62C163.774 332.246 147.658 323.067 146.026 323.067C139.499 323.067 72.3853 436.277 68.9175 453.003C67.4895 459.938 69.7335 461.57 106.86 482.784C175.401 521.745 332.883 613.536 335.331 616.188C339.002 619.86 357.566 622.716 184.377 592.322C107.472 578.86 40.1547 567.845 35.0549 567.845C25.6713 567.845 25.4673 568.049 23.4274 575.392C15.2677 607.009 0.784306 692.885 0.784306 710.02C0.784306 719.403 1.39628 720.831 5.27212 721.851C7.92401 722.258 67.2856 732.865 137.459 745.104C293.716 772.642 311.667 776.11 309.424 777.945C308.608 778.557 288.004 782.637 263.933 786.921C146.638 807.115 1.60027 833.428 0.580314 834.652C-1.4596 836.896 2.00826 866.677 8.94397 907.474C16.0837 950.31 23.6314 981.315 28.1192 985.598C30.7711 988.25 41.3786 986.822 121.547 972.952C229.867 953.981 329.211 937.051 331.659 937.051C332.679 937.051 333.087 937.867 332.271 939.091C330.639 941.946 267.809 979.275 181.317 1028.84C88.0927 1082.49 71.9774 1092.08 69.3255 1096.56C67.6935 1099.22 70.1414 1105.74 81.157 1127.16C110.94 1185.5 140.723 1230.58 148.882 1229.15C150.922 1228.74 165.202 1221.2 180.297 1212.63C240.678 1177.95 358.178 1110.23 380.005 1097.38C410.399 1079.43 419.783 1074.74 417.743 1078.21C414.071 1084.53 355.322 1156.13 320.031 1197.13C287.188 1235.48 231.091 1302.59 225.583 1310.13L219.259 1318.9L223.543 1324.82C232.927 1337.47 316.971 1408.25 332.475 1416.41C336.758 1418.85 337.982 1418.65 342.674 1414.16C349.814 1407.84 381.841 1370.51 442.426 1298.1C469.353 1266.07 502.196 1226.91 515.659 1210.79C529.122 1194.88 540.75 1181.83 541.566 1181.83C544.014 1181.83 542.382 1186.11 487.304 1337.67C459.765 1413.76 437.734 1476.79 438.754 1477.81C447.118 1486.17 568.085 1530.64 582.568 1530.64C584.404 1530.64 587.668 1525.13 590.932 1516.97C597.664 1499.22 628.466 1415.18 647.234 1362.35C677.22 1278.52 689.256 1246.69 691.296 1246.29C694.764 1245.88 695.784 1285.45 696.192 1419.87L696.396 1548.59L703.943 1551.24C712.715 1554.09 825.114 1555.11 843.881 1552.46L855.509 1550.83V1392.34C855.509 1299.93 856.325 1234.86 857.345 1235.88C858.365 1237.11 864.689 1253.02 871.42 1271.58C917.318 1397.84 960.565 1514.52 963.829 1521.05C968.724 1530.64 972.396 1530.64 999.527 1522.68C1034.61 1512.07 1102.13 1485.56 1111.31 1478.62C1115.8 1475.36 1117.23 1480.46 1097.24 1427.63C1081.74 1386.83 1026.66 1234.05 1017.68 1206.71C1013.6 1194.07 1010.54 1183.26 1011.15 1182.64C1011.97 1181.62 1027.07 1199.37 1114.78 1304.22C1165.78 1365.21 1194.14 1398.66 1206.78 1413.14L1213.72 1421.1L1231.06 1408.66C1252.27 1393.56 1292.66 1359.5 1317.14 1336.45L1335.09 1319.52L1287.97 1263.42C1262.06 1232.62 1224.94 1188.56 1205.35 1165.51C1167.62 1120.84 1132.94 1078.41 1132.94 1076.78C1132.94 1075.15 1146.6 1082.49 1185.36 1104.93C1266.35 1152.05 1371.61 1212.43 1388.54 1221.6C1406.29 1231.19 1406.69 1231.19 1410.37 1227.52C1418.73 1218.95 1450.35 1166.53 1467.08 1133.48C1484.62 1098.4 1484.62 1098.2 1480.74 1094.32C1476.66 1090.24 1436.27 1066.17 1378.75 1033.53C1317.55 998.449 1217.59 940.723 1214.94 938.683C1213.51 937.459 1212.7 936.031 1213.11 935.623C1213.92 935.011 1329.38 954.797 1446.06 975.603C1476.46 981.111 1506.45 986.21 1512.77 987.026C1524.4 988.25 1524.6 988.25 1526.85 982.539C1532.97 966.628 1555.61 836.692 1552.75 834.04C1552.34 833.632 1493.8 823.229 1422.61 810.786C1259.21 782.025 1246.76 779.781 1243.3 777.945C1239.63 775.906 1240.03 775.906 1356.31 755.507C1485.23 732.865 1549.49 721.035 1550.92 719.811C1555.4 715.119 1535.62 596.198 1526.23 573.148C1523.99 567.437 1523.79 567.233 1510.53 568.456C1503.18 569.068 1434.23 580.695 1357.53 594.158C1280.83 607.825 1216.57 618.84 1214.94 618.84C1212.9 618.84 1212.49 618.228 1213.72 617.004C1214.74 615.984 1260.64 589.059 1315.51 557.441C1445.45 482.784 1472.18 466.874 1479.11 460.958L1484.82 456.063L1474.83 435.869C1457.9 401.6 1425.46 346.321 1411.39 328.37C1408.73 324.903 1407.51 324.699 1401.39 326.534C1397.51 327.758 1348.56 355.092 1292.66 387.525C1154.15 467.486 1134.77 478.501 1133.75 477.481C1132.33 476.053 1184.14 413.431 1275.73 305.728C1317.55 256.569 1330.81 239.638 1330.81 235.559C1330.81 228.216 1263.29 168.449 1225.75 142.543L1213.92 134.588L1202.7 146.623C1196.58 153.15 1178.43 174.364 1162.52 193.335C1146.6 212.509 1122.74 241.066 1109.27 256.977C1096.02 272.683 1068.07 305.728 1047.47 330.206C1026.66 354.684 1009.52 373.858 1009.11 372.634C1008.71 371.41 1020.74 336.53 1035.84 295.121C1102.13 113.782 1114.58 79.513 1114.58 78.2891C1114.58 74.4135 1048.48 47.8959 1004.01 33.6173C979.332 25.8659 968.724 23.4182 966.276 25.05C965.256 25.6619 953.629 56.4632 940.37 93.5877C927.11 130.508 903.243 196.19 887.332 239.435L858.569 317.967L856.937 161.922C855.713 51.9755 854.489 5.46784 852.857 4.44782C847.145 0.980168 778.4 -1.26361 734.542 0.776188ZM735.154 438.316C767.181 528.476 770.036 535.208 775.952 535.208C781.46 535.208 785.948 525.62 803.491 476.257C823.074 420.774 848.573 349.584 850.817 344.485C851.633 342.241 852.857 385.485 853.469 442.396C854.081 498.491 855.305 546.019 856.325 547.854C861.017 557.645 863.669 554.994 924.662 480.133C974.64 419.142 996.263 393.848 997.691 395.276C998.099 395.684 992.183 413.023 984.228 433.421C933.026 568.049 926.294 589.263 933.026 593.342C934.25 594.158 948.733 587.223 965.256 577.84C1009.93 552.954 1096.02 502.774 1105.81 496.247C1110.5 492.983 1114.78 490.332 1115.6 490.332C1119.27 490.332 1104.79 508.078 1039.1 584.571C1011.56 616.596 987.696 645.154 986.268 648.009C982.188 655.557 984.636 659.636 992.795 659.636C998.711 659.636 1099.69 641.686 1174.35 627.407C1185.16 625.163 1194.14 624.143 1194.14 624.755C1194.14 626.183 1173.53 639.442 1163.54 644.338C1147.42 652.497 1021.56 723.482 1018.29 726.542C1012.99 731.03 1013.6 738.985 1019.31 741.025C1021.76 742.045 1057.46 748.368 1098.26 755.303C1198.62 772.234 1218.61 776.11 1218.61 778.149C1218.61 778.965 1214.33 780.393 1209.03 781.005C1182.3 784.677 1018.5 812.418 1016.66 813.642C1013.6 815.682 1014.21 822.005 1018.29 826.493C1020.13 828.941 1049.71 846.483 1083.98 865.657C1118.25 885.036 1154.97 905.638 1165.58 911.553C1187.4 923.996 1193.52 928.076 1192.1 929.708C1191.48 930.116 1172.72 927.056 1150.28 922.568C1110.29 914.613 1035.23 901.15 1003.81 896.051C986.064 893.399 982.596 894.623 984.84 902.986C985.86 907.27 1020.74 949.698 1071.54 1008.65C1100.91 1042.51 1116.62 1061.48 1115.6 1061.48C1112.54 1061.48 1084.39 1045.77 1017.68 1006.61C977.292 982.743 942.001 962.957 939.554 962.141C936.494 961.529 933.434 962.141 931.394 964.384C928.334 967.24 928.538 968.668 932.822 982.335C935.474 990.494 942.205 1009.06 947.713 1023.74C953.425 1038.23 962.197 1061.68 967.704 1075.76C981.984 1113.49 996.467 1155.72 995.651 1157.96C995.039 1159.8 980.352 1142.46 904.671 1050.46C875.908 1015.38 863.873 1002.32 860.405 1002.32C858.977 1002.32 857.141 1003.96 856.325 1005.79C855.305 1007.83 854.081 1055.77 853.469 1112.47L852.449 1215.49L838.782 1177.75C831.234 1156.94 816.343 1115.13 805.531 1084.94C778.4 1008.24 776.36 1006 762.081 1041.69C757.185 1053.93 743.11 1092.48 730.666 1127.37C718.427 1162.45 706.187 1196.52 703.943 1203.25L699.455 1215.49L698.435 1111.46C697.823 1054.14 696.6 1006.2 695.784 1004.77C691.092 997.633 686.4 1002.32 610.311 1095.54C582.568 1129.41 558.905 1157.55 557.681 1158.37C553.397 1161.02 556.457 1151.44 578.896 1091.67C613.371 1000.08 624.183 967.852 621.531 963.772C617.451 957.653 616.227 958.061 504.847 1023.54C467.313 1045.57 436.306 1063.11 435.694 1062.7C435.286 1062.09 459.153 1033.53 488.732 998.857C565.025 909.717 569.717 903.802 567.065 897.071C565.229 892.175 552.378 893.603 491.996 905.434C425.291 918.489 361.849 929.504 360.421 928.28C358.994 926.852 363.685 924.2 490.364 853.419C532.998 829.553 537.69 826.289 536.874 818.946C536.058 812.622 545.442 814.662 430.187 795.284C379.801 786.717 336.554 779.169 334.311 778.557C330.843 777.333 331.047 777.129 336.35 775.702C339.818 774.886 384.288 767.134 435.286 758.567C486.284 750.204 530.142 742.249 532.794 741.229C543.402 736.741 535.854 727.358 507.703 711.243C499.952 706.552 463.641 686.154 427.127 665.756C390.612 645.357 360.013 627.815 358.994 626.795C355.322 623.328 365.113 624.959 452.83 641.278C554.417 660.248 565.229 661.88 567.065 656.78C569.513 650.661 561.965 641.074 487.304 554.382C442.222 502.163 434.266 492.371 436.51 492.371C437.53 492.371 465.069 508.078 497.504 527.252C592.972 583.551 605.823 590.486 614.595 591.71C622.551 592.73 622.959 592.526 622.959 587.427C622.959 584.571 608.679 543.775 591.136 496.859C573.593 450.147 557.885 407.719 556.457 402.62L553.601 393.44L564.413 404.659C570.125 410.779 592.972 437.908 614.799 464.834C680.484 545.611 684.972 550.506 690.48 550.506C694.56 550.506 695.58 549.282 696.804 542.347C697.62 537.859 698.232 490.536 698.435 437.296C698.639 342.649 698.843 340.609 702.311 348.565C704.351 353.052 719.039 393.44 735.154 438.316Z" fill="#007AFF"/>
</svg>
